#!OML:ASF F:\VICON\USERDATA\INSTALL\rory3\rory3.ASF
:FULLY-SPECIFIED
:DEGREES
725
root 0.424687 17.6099 -1.46407 22.2457 -2.45103 5.41107
lowerback 11.0218 -0.993199 1.79129
upperback 1.13507 -1.00236 1.77487
thorax -4.99421 -0.512196 0.996065
lowerneck -13.7419 -10.1127 -14.7611
upperneck -3.04155 -12.3516 26.129
head 4.27643 -5.36447 9.63601
rclavicle -5.56597e-015 3.97569e-015
rhumerus -9.24189 -7.09933 -98.7826
rradius 44.5664
rwrist 15.1406
rhand -12.1885 13.9213
rfingers 7.12502
rthumb 13.8753 -15.5959
lclavicle -5.56597e-015 3.97569e-015
lhumerus -9.6559 -31.4668 108.124
lradius 15.2644
lwrist -60.137
lhand 9.66262 25.0023
lfingers 7.12502
lthumb 34.8063 51.6034
rfemur -29.4857 22.1648 1.37139
rtibia 13.6065
rfoot -5.20785 -24.986
rtoes -16.0025
lfemur -22.0169 -11.6993 -20.5132
ltibia -1.49089e-014
lfoot -1.10384 5.7932
ltoes -17.5936
726
root 0.427614 17.6103 -1.44711 22.4523 -2.72359 5.46255
lowerback 11.008 -0.929725 1.81067
upperback 1.13264 -0.922717 1.65959
thorax -4.99145 -0.4746 0.852334
lowerneck -13.7589 -10.1817 -14.711
upperneck -2.68243 -12.5582 26.5678
head 4.47014 -5.4371 9.74916
rclavicle -2.62396e-014 7.95139e-015
rhumerus -10.7664 -5.64199 -99.2559
rradius 43.7078
rwrist 15.1184
rhand -11.1848 13.0769
rfingers 7.12502
rthumb 14.8424 -16.3715
lclavicle -2.62396e-014 7.95139e-015
lhumerus -11.7154 -36.9354 109.211
lradius 16.5214
lwrist -51.2951
lhand 9.31618 24.8074
lfingers 7.12502
lthumb 34.4775 51.4839
rfemur -29.7028 22.0881 1.21335
rtibia 13.5479
rfoot -5.06731 -24.7848
rtoes -16.6852
lfemur -22.1639 -11.4619 -20.6474
ltibia 9.74045e-014
lfoot -1.18813 5.73223
ltoes -17.525
727
root 0.427705 17.6097 -1.43188 22.6367 -2.9873 5.42584
lowerback 11.0902 -0.818545 1.85877
upperback 1.1037 -0.769998 1.59877
thorax -5.06912 -0.401503 0.740317
lowerneck -13.689 -10.2818 -14.6564
upperneck -2.40741 -12.7926 26.8603
head 4.61558 -5.53577 9.8083
rclavicle -3.97569e-015 2.14687e-014
rhumerus -11.9846 -4.73939 -99.7058
rradius 42.5245
rwrist 15.6979
rhand -10.0084 12.8238
rfingers 7.12502
rthumb 15.9755 -16.5374
lclavicle -3.97569e-015 2.14687e-014
lhumerus -14.3965 -42.9034 110.941
lradius 18.2793
lwrist -41.5601
lhand 7.98892 25.0481
lfingers 7.12502
lthumb 33.2165 52.0024
rfemur -29.941 22.0488 1.15674
rtibia 13.5429
rfoot -5.04915 -24.534
rtoes -16.7178
lfemur -22.2886 -11.1927 -20.6873
ltibia 3.8763e-014
lfoot -1.16223 5.65374
ltoes -17.7357
728
root 0.425745 17.6083 -1.41742 22.7369 -3.33424 5.35399
lowerback 11.2406 -0.702743 1.76017
upperback 1.09196 -0.621215 1.65521
thorax -5.16336 -0.326206 0.834524
lowerneck -13.6885 -10.3418 -14.7518
upperneck -2.03395 -12.9479 27.0011
head 4.77898 -5.58898 9.85185
rclavicle -7.95139e-016 -1.11319e-014
rhumerus -12.8811 -4.27057 -99.979
rradius 40.7877
rwrist 17.3644
rhand -8.90275 13.634
rfingers 7.12502
rthumb 17.0401 -15.6386
lclavicle -7.95139e-016 -1.11319e-014
lhumerus -17.3471 -47.5928 112.982
lradius 20.5242
lwrist -32.8177
lhand 6.99329 24.9286
lfingers 7.12502
lthumb 32.2693 52.0802
rfemur -30.1498 22.1221 1.12047
rtibia 13.5495
rfoot -5.05203 -24.2958
rtoes -16.5096
lfemur -22.2986 -10.8315 -20.7427
ltibia 5.96354e-015
lfoot -1.12155 5.55777
ltoes -18.5574
729
root 0.423823 17.6075 -1.40537 22.8019 -3.75569 5.29405
lowerback 11.4115 -0.590469 1.57559
upperback 1.10018 -0.486346 1.74314
thorax -5.2478 -0.255436 1.01188
lowerneck -13.7286 -10.3498 -15.0041
upperneck -1.6698 -13.0028 27.1725
head 4.9402 -5.59002 9.95072
rclavicle 3.97569e-015 4.77083e-015
rhumerus -13.7404 -3.76542 -100.212
rradius 38.9944
rwrist 19.787
rhand -8.45346 14.5767
rfingers 7.12502
rthumb 17.4725 -14.6581
lclavicle 3.97569e-015 4.77083e-015
lhumerus -20.0279 -50.5461 114.918
lradius 22.4958
lwrist -25.6328
lhand 6.78776 25.2137
lfingers 7.12502
lthumb 32.0737 52.4048
rfemur -30.3639 22.2415 1.00285
rtibia 13.5372
rfoot -4.94685 -24.053
rtoes -16.8168
lfemur -22.2698 -10.4063 -20.8462
ltibia -7.2954e-014
lfoot -1.20773 5.4633
ltoes -18.5081
730
root 0.422142 17.6061 -1.39589 22.9612 -4.20355 5.19098
lowerback 11.4746 -0.474457 1.43282
upperback 1.15343 -0.347135 1.80815
thorax -5.22654 -0.183435 1.13877
lowerneck -13.875 -10.3838 -15.1771
upperneck -1.49934 -13.0541 27.302
head 5.0527 -5.59318 10.017
rclavicle 2.38542e-015 -1.27222e-014
rhumerus -14.402 -2.85644 -100.614
rradius 37.0789
rwrist 21.5751
rhand -9.02876 14.771
rfingers 7.12502
rthumb 16.9188 -14.5121
lclavicle 2.38542e-015 -1.27222e-014
lhumerus -21.9868 -51.4925 116.102
lradius 24.1961
lwrist -20.2083
lhand 6.51325 25.0891
lfingers 7.12502
lthumb 31.8122 52.3325
rfemur -30.7681 22.3533 0.844559
rtibia 13.5991
rfoot -4.83587 -23.8134
rtoes -17.3127
lfemur -22.3604 -9.94229 -20.9065
ltibia -3.27995e-014
lfoot -1.24107 5.36099
ltoes -19.5685
731
root 0.422288 17.6053 -1.38408 23.1641 -4.50237 5.0719
lowerback 11.4566 -0.41307 1.41763
upperback 1.18984 -0.265874 1.8736
thorax -5.17861 -0.142615 1.20255
lowerneck -13.9879 -10.4468 -15.3648
upperneck -1.32445 -13.1377 27.323
head 5.15681 -5.61732 10.0424
rclavicle -3.18055e-015 3.97569e-015
rhumerus -14.9822 -2.05952 -101.038
rradius 35.1963
rwrist 23.4789
rhand -9.78957 14.579
rfingers 7.12502
rthumb 16.1863 -14.7653
lclavicle -3.18055e-015 3.97569e-015
lhumerus -23.5289 -51.3502 116.765
lradius 26.0073
lwrist -15.1095
lhand 5.94525 24.4554
lfingers 7.12502
lthumb 31.2711 51.8049
rfemur -31.1922 22.3335 0.771571
rtibia 13.7527
rfoot -4.70507 -23.5648
rtoes -17.8406
lfemur -22.5021 -9.61087 -20.8912
ltibia 1.92821e-014
lfoot -1.22692 5.29201
ltoes -20.3086
732
root 0.423928 17.6036 -1.37184 23.188 -4.72238 5.10271
lowerback 11.5932 -0.375855 1.35142
upperback 1.26141 -0.222743 1.88276
thorax -5.17963 -0.120009 1.24344
lowerneck -14.1325 -10.4842 -15.4108
upperneck -1.10892 -13.1974 27.193
head 5.24601 -5.62968 9.99085
rclavicle 8.74653e-015 -2.06736e-014
rhumerus -15.4721 -1.66708 -101.326
rradius 33.3917
rwrist 25.7748
rhand -10.0854 15.1033
rfingers 7.12502
rthumb 15.9014 -14.2639
lclavicle 8.74653e-015 -2.06736e-014
lhumerus -25.0811 -51.1115 117.338
lradius 27.9505
lwrist -10.2718
lhand 4.53006 24.1444
lfingers 7.12502
lthumb 29.9216 51.7458
rfemur -31.4019 22.2506 0.685259
rtibia 13.9989
rfoot -4.61904 -23.3809
rtoes -18.249
lfemur -22.4657 -9.41878 -21.0373
ltibia -5.34731e-014
lfoot -1.55419 5.41975
ltoes -16.0937
733
root 0.422965 17.6025 -1.3613 23.1312 -4.97154 5.22461
lowerback 11.8529 -0.316045 1.12713
upperback 1.33784 -0.167246 1.89314
thorax -5.24372 -0.0881108 1.37396
lowerneck -14.3187 -10.5034 -15.4593
upperneck -0.910949 -13.2217 27.0622
head 5.32968 -5.62287 9.94439
rclavicle -5.56597e-015 4.77083e-015
rhumerus -15.9668 -1.33831 -101.484
rradius 31.5025
rwrist 27.6719
rhand -10.6737 16.2654
rfingers 7.12502
rthumb 15.3348 -13.146
lclavicle -5.56597e-015 4.77083e-015
lhumerus -26.6749 -50.6565 117.855
lradius 29.8141
lwrist -7.3748
lhand 2.38307 23.8117
lfingers 7.12502
lthumb 27.8709 51.7641
rfemur -31.5484 22.1917 0.548064
rtibia 14.3091
rfoot -4.76292 -23.1663
rtoes -17.9302
lfemur -22.3512 -9.2258 -21.3008
ltibia 2.52457e-014
lfoot -1.83659 5.49352
ltoes -12.4074
